<?xml version="1.0" encoding="UTF-8"?>
<svg width="48" height="48" viewBox="0 0 48 48" fill="none" xmlns="http://www.w3.org/2000/svg">
    <rect width="48" height="48" rx="8" fill="#F5F5F5"/>
    <path d="M31.7071 16.2929C31.3166 15.9024 30.6834 15.9024 30.2929 16.2929L24 22.5858L17.7071 16.2929C17.3166 15.9024 16.6834 15.9024 16.2929 16.2929C15.9024 16.6834 15.9024 17.3166 16.2929 17.7071L22.5858 24L16.2929 30.2929C15.9024 30.6834 15.9024 31.3166 16.2929 31.7071C16.6834 32.0976 17.3166 32.0976 17.7071 31.7071L24 25.4142L30.2929 31.7071C30.6834 32.0976 31.3166 32.0976 31.7071 31.7071C32.0976 31.3166 32.0976 30.6834 31.7071 30.2929L25.4142 24L31.7071 17.7071C32.0976 17.3166 32.0976 16.6834 31.7071 16.2929Z" fill="#1A1A1A"/>
</svg> 