<?xml version="1.0" encoding="UTF-8"?>
<svg width="48" height="48" viewBox="0 0 48 48" fill="none" xmlns="http://www.w3.org/2000/svg">
    <rect width="48" height="48" rx="8" fill="#F5F5F5"/>
    <path d="M24 16C19.5817 16 16 19.5817 16 24C16 28.4183 19.5817 32 24 32C28.4183 32 32 28.4183 32 24C32 19.5817 28.4183 16 24 16ZM24 30C20.6863 30 18 27.3137 18 24C18 20.6863 20.6863 18 24 18C27.3137 18 30 20.6863 30 24C30 27.3137 27.3137 30 24 30Z" fill="#1A1A1A"/>
    <path d="M24 20C21.7909 20 20 21.7909 20 24C20 26.2091 21.7909 28 24 28C26.2091 28 28 26.2091 28 24C28 21.7909 26.2091 20 24 20ZM24 26C22.8954 26 22 25.1046 22 24C22 22.8954 22.8954 22 24 22C25.1046 22 26 22.8954 26 24C26 25.1046 25.1046 26 24 26Z" fill="#1A1A1A"/>
</svg> 